<svg width="20" height="20" viewBox="0 0 20 20" fill="none" xmlns="http://www.w3.org/2000/svg">
<circle cx="10" cy="10" r="2.5" stroke="#5D41DE" stroke-width="1.5" stroke-linecap="round"/>
<path fill-rule="evenodd" clip-rule="evenodd" d="M8.39079 2.80235C8.92921 1.28811 11.0707 1.28811 11.6091 2.80234C11.9483 3.75592 13.0375 4.20711 13.9516 3.77261C15.403 3.08266 16.9173 4.59688 16.2274 6.04836C15.7929 6.96243 16.244 8.0517 17.1976 8.39084C18.7119 8.92926 18.7119 11.0708 17.1976 11.6092C16.244 11.9483 15.7929 13.0376 16.2274 13.9517C16.9173 15.4031 15.403 16.9173 13.9516 16.2274C13.0375 15.7929 11.9483 16.2441 11.6091 17.1977C11.0707 18.7119 8.92921 18.7119 8.39079 17.1977C8.05165 16.2441 6.96239 15.7929 6.04832 16.2274C4.59684 16.9173 3.08261 15.4031 3.77257 13.9517C4.20706 13.0376 3.75588 11.9483 2.80229 11.6092C1.28807 11.0708 1.28807 8.92926 2.8023 8.39084C3.75588 8.0517 4.20706 6.96243 3.77257 6.04836C3.08261 4.59688 4.59684 3.08266 6.04832 3.77261C6.96239 4.20711 8.05165 3.75592 8.39079 2.80235Z" stroke="#5D41DE" stroke-width="1.5" stroke-linecap="round"/>
</svg>
